<svg width="111" height="111" viewBox="0 0 111 111" fill="none" xmlns="http://www.w3.org/2000/svg">
<circle cx="55.5" cy="55.5" r="55.5" fill="#F46524"/>
<g clip-path="url(#clip0_1_27)">
<path d="M39.5754 30C35.0172 30 30.9562 32.0515 27.8898 35.2625C24.9062 38.4735 23 42.844 23 47.8389C23 52.7446 24.9062 57.1151 27.8898 60.4153L56.1509 90.8306L84.412 60.4153C87.3956 57.2043 89.3018 52.8338 89.3018 47.8389C89.3018 42.9332 87.3956 38.5627 84.412 35.2625C81.4284 32.0515 77.3674 30 72.7263 30C68.1681 30 64.1071 32.0515 61.0406 35.2625C58.0571 38.4735 56.1509 42.844 56.1509 47.8389C56.1509 42.9332 54.2447 38.5627 51.2611 35.2625C48.2775 32.0515 44.2166 30 39.5754 30Z" fill="white"/>
</g>
<defs>
<clipPath id="clip0_1_27">
<rect width="66.3018" height="60.8306" fill="white" transform="translate(23 30)"/>
</clipPath>
</defs>
</svg>
