<svg xmlns="http://www.w3.org/2000/svg" xmlns:xlink="http://www.w3.org/1999/xlink" width="500" zoomAndPan="magnify" viewBox="0 0 375 374.999991" height="500" preserveAspectRatio="xMidYMid meet" version="1.0"><defs><g/><clipPath id="6ab9bcb1ee"><path d="M 51.6875 51.6875 L 323.3125 51.6875 L 323.3125 323.3125 L 51.6875 323.3125 Z M 51.6875 51.6875 " clip-rule="nonzero"/></clipPath><clipPath id="b7f9d361ac"><path d="M 187.5 51.6875 C 112.492188 51.6875 51.6875 112.492188 51.6875 187.5 C 51.6875 262.507812 112.492188 323.3125 187.5 323.3125 C 262.507812 323.3125 323.3125 262.507812 323.3125 187.5 C 323.3125 112.492188 262.507812 51.6875 187.5 51.6875 Z M 187.5 51.6875 " clip-rule="nonzero"/></clipPath><clipPath id="f516748de2"><path d="M 100.511719 87.125 L 274.511719 87.125 L 274.511719 221.375 L 100.511719 221.375 Z M 100.511719 87.125 " clip-rule="nonzero"/></clipPath></defs><g clip-path="url(#6ab9bcb1ee)"><g clip-path="url(#b7f9d361ac)"><path fill="#f9f9f9" d="M 51.6875 51.6875 L 323.3125 51.6875 L 323.3125 323.3125 L 51.6875 323.3125 Z M 51.6875 51.6875 " fill-opacity="1" fill-rule="nonzero"/></g></g><g clip-path="url(#f516748de2)"><path fill="#f9f9f9" d="M 278.109375 68.464844 C 279.578125 69.929688 281.007812 71.429688 282.398438 72.96875 C 283.792969 74.503906 285.148438 76.074219 286.464844 77.679688 C 287.777344 79.28125 289.054688 80.914062 290.289062 82.582031 C 291.527344 84.246094 292.71875 85.941406 293.871094 87.667969 C 295.023438 89.390625 296.132812 91.144531 297.199219 92.921875 C 298.265625 94.703125 299.289062 96.503906 300.265625 98.335938 C 301.242188 100.164062 302.175781 102.015625 303.0625 103.890625 C 303.949219 105.765625 304.789062 107.660156 305.582031 109.578125 C 306.378906 111.492188 307.125 113.429688 307.824219 115.382812 C 308.519531 117.332031 309.171875 119.300781 309.773438 121.289062 C 310.375 123.273438 310.929688 125.269531 311.433594 127.28125 C 311.9375 129.292969 312.390625 131.316406 312.796875 133.351562 C 313.199219 135.386719 313.554688 137.429688 313.859375 139.480469 C 314.164062 141.53125 314.417969 143.589844 314.621094 145.652344 C 314.824219 147.71875 314.976562 149.785156 315.078125 151.855469 C 315.179688 153.929688 315.230469 156 315.230469 158.074219 C 315.230469 160.148438 315.179688 162.222656 315.078125 164.292969 C 314.976562 166.367188 314.824219 168.433594 314.621094 170.496094 C 314.417969 172.5625 314.164062 174.621094 313.859375 176.671875 C 313.554688 178.722656 313.203125 180.765625 312.796875 182.800781 C 312.390625 184.835938 311.9375 186.855469 311.433594 188.871094 C 310.929688 190.882812 310.378906 192.878906 309.773438 194.863281 C 309.171875 196.847656 308.523438 198.816406 307.824219 200.769531 C 307.125 202.722656 306.378906 204.65625 305.585938 206.574219 C 304.792969 208.492188 303.953125 210.386719 303.066406 212.261719 C 302.179688 214.136719 301.246094 215.988281 300.269531 217.816406 C 299.289062 219.644531 298.269531 221.449219 297.203125 223.230469 C 296.136719 225.007812 295.027344 226.761719 293.875 228.484375 C 292.722656 230.210938 291.527344 231.90625 290.292969 233.570312 C 289.058594 235.238281 287.78125 236.871094 286.464844 238.472656 C 285.148438 240.078125 283.796875 241.648438 282.402344 243.183594 C 281.011719 244.722656 279.582031 246.222656 278.113281 247.691406 C 276.648438 249.15625 275.144531 250.585938 273.609375 251.980469 C 272.070312 253.371094 270.503906 254.726562 268.898438 256.042969 C 267.296875 257.359375 265.660156 258.632812 263.996094 259.867188 C 262.328125 261.105469 260.632812 262.296875 258.910156 263.449219 C 257.183594 264.601562 255.433594 265.710938 253.65625 266.777344 C 251.875 267.84375 250.070312 268.867188 248.242188 269.84375 C 246.414062 270.824219 244.5625 271.753906 242.6875 272.640625 C 240.8125 273.527344 238.914062 274.367188 237 275.164062 C 235.082031 275.957031 233.148438 276.703125 231.195312 277.402344 C 229.242188 278.101562 227.273438 278.75 225.289062 279.351562 C 223.304688 279.953125 221.304688 280.507812 219.292969 281.011719 C 217.28125 281.515625 215.257812 281.96875 213.226562 282.375 C 211.191406 282.78125 209.148438 283.132812 207.097656 283.4375 C 205.046875 283.742188 202.988281 283.996094 200.921875 284.199219 C 198.859375 284.402344 196.792969 284.554688 194.71875 284.65625 C 192.648438 284.757812 190.574219 284.808594 188.5 284.808594 C 186.425781 284.808594 184.355469 284.757812 182.28125 284.65625 C 180.210938 284.554688 178.144531 284.402344 176.078125 284.199219 C 174.015625 283.996094 171.957031 283.742188 169.90625 283.4375 C 167.855469 283.132812 165.8125 282.78125 163.777344 282.375 C 161.742188 281.972656 159.71875 281.515625 157.707031 281.011719 C 155.695312 280.507812 153.699219 279.957031 151.710938 279.355469 C 149.726562 278.75 147.757812 278.101562 145.804688 277.402344 C 143.851562 276.703125 141.917969 275.957031 140.003906 275.164062 C 138.085938 274.371094 136.191406 273.53125 134.316406 272.644531 C 132.441406 271.757812 130.589844 270.824219 128.757812 269.847656 C 126.929688 268.871094 125.125 267.847656 123.347656 266.78125 C 121.570312 265.714844 119.816406 264.605469 118.09375 263.453125 C 116.367188 262.300781 114.671875 261.105469 113.007812 259.871094 C 111.339844 258.636719 109.707031 257.359375 108.101562 256.042969 C 106.5 254.730469 104.929688 253.375 103.390625 251.980469 C 101.855469 250.589844 100.355469 249.160156 98.886719 247.691406 C 97.421875 246.226562 95.992188 244.726562 94.597656 243.1875 C 93.207031 241.652344 91.851562 240.082031 90.535156 238.476562 C 89.21875 236.875 87.945312 235.238281 86.707031 233.574219 C 85.472656 231.910156 84.277344 230.214844 83.125 228.488281 C 81.972656 226.765625 80.863281 225.011719 79.796875 223.234375 C 78.730469 221.453125 77.710938 219.648438 76.730469 217.820312 C 75.753906 215.992188 74.820312 214.140625 73.933594 212.265625 C 73.046875 210.390625 72.207031 208.496094 71.414062 206.578125 C 70.621094 204.664062 69.875 202.726562 69.175781 200.773438 C 68.476562 198.820312 67.828125 196.851562 67.222656 194.867188 C 66.621094 192.882812 66.070312 190.886719 65.566406 188.875 C 65.0625 186.863281 64.605469 184.839844 64.203125 182.804688 C 63.796875 180.769531 63.441406 178.726562 63.136719 176.675781 C 62.835938 174.625 62.582031 172.566406 62.378906 170.503906 C 62.171875 168.4375 62.019531 166.371094 61.917969 164.296875 C 61.816406 162.226562 61.765625 160.152344 61.765625 158.082031 C 61.765625 156.007812 61.816406 153.933594 61.917969 151.863281 C 62.019531 149.789062 62.171875 147.722656 62.375 145.660156 C 62.578125 143.59375 62.832031 141.535156 63.136719 139.484375 C 63.441406 137.433594 63.796875 135.390625 64.203125 133.355469 C 64.605469 131.320312 65.058594 129.296875 65.5625 127.285156 C 66.066406 125.273438 66.621094 123.277344 67.222656 121.292969 C 67.824219 119.308594 68.476562 117.339844 69.175781 115.386719 C 69.871094 113.433594 70.617188 111.496094 71.414062 109.582031 C 72.207031 107.664062 73.046875 105.769531 73.933594 103.894531 C 74.820312 102.019531 75.753906 100.167969 76.730469 98.339844 C 77.707031 96.507812 78.730469 94.707031 79.796875 92.925781 C 80.863281 91.148438 81.972656 89.394531 83.125 87.671875 C 84.277344 85.945312 85.46875 84.25 86.707031 82.585938 C 87.941406 80.917969 89.214844 79.285156 90.53125 77.679688 C 91.847656 76.078125 93.203125 74.507812 94.59375 72.972656 C 95.988281 71.433594 97.417969 69.933594 98.882812 68.464844 C 100.351562 67 101.851562 65.570312 103.390625 64.175781 C 104.925781 62.785156 106.496094 61.429688 108.097656 60.113281 C 109.703125 58.796875 111.335938 57.523438 113.003906 56.285156 C 114.667969 55.050781 116.363281 53.859375 118.089844 52.707031 C 119.8125 51.554688 121.566406 50.445312 123.34375 49.378906 C 125.121094 48.3125 126.925781 47.289062 128.753906 46.3125 C 130.585938 45.332031 132.4375 44.402344 134.3125 43.515625 C 136.1875 42.628906 138.082031 41.789062 140 40.992188 C 141.914062 40.199219 143.847656 39.453125 145.800781 38.753906 C 147.753906 38.054688 149.722656 37.40625 151.707031 36.804688 C 153.691406 36.203125 155.691406 35.648438 157.703125 35.144531 C 159.714844 34.640625 161.738281 34.1875 163.773438 33.78125 C 165.808594 33.375 167.851562 33.023438 169.902344 32.71875 C 171.953125 32.414062 174.011719 32.160156 176.074219 31.957031 C 178.140625 31.753906 180.207031 31.601562 182.277344 31.5 C 184.351562 31.398438 186.421875 31.34375 188.496094 31.34375 C 190.570312 31.34375 192.644531 31.394531 194.714844 31.5 C 196.785156 31.601562 198.855469 31.753906 200.917969 31.957031 C 202.984375 32.160156 205.039062 32.414062 207.09375 32.71875 C 209.144531 33.019531 211.1875 33.375 213.222656 33.78125 C 215.253906 34.183594 217.277344 34.640625 219.289062 35.144531 C 221.300781 35.648438 223.300781 36.199219 225.285156 36.800781 C 227.269531 37.402344 229.238281 38.054688 231.191406 38.753906 C 233.144531 39.453125 235.078125 40.199219 236.996094 40.992188 C 238.910156 41.785156 240.808594 42.625 242.683594 43.511719 C 244.558594 44.398438 246.410156 45.332031 248.238281 46.308594 C 250.066406 47.285156 251.871094 48.308594 253.652344 49.375 C 255.429688 50.441406 257.179688 51.550781 258.90625 52.703125 C 260.628906 53.855469 262.324219 55.046875 263.992188 56.285156 C 265.65625 57.519531 267.292969 58.796875 268.894531 60.109375 C 270.5 61.425781 272.070312 62.78125 273.605469 64.175781 C 275.140625 65.566406 276.644531 66.996094 278.109375 68.464844 Z M 278.109375 68.464844 " fill-opacity="1" fill-rule="nonzero"/></g><path fill="#f46524" d="M 236.140625 149.867188 C 217.460938 149.867188 202.316406 165.011719 202.316406 183.695312 C 202.316406 202.375 217.460938 217.519531 236.140625 217.519531 C 254.824219 217.519531 269.96875 202.375 269.96875 183.695312 C 269.972656 165.015625 254.824219 149.867188 236.140625 149.867188 Z M 236.140625 162.351562 C 247.933594 162.351562 257.492188 171.90625 257.492188 183.699219 C 257.492188 195.488281 247.933594 205.046875 236.140625 205.046875 C 224.351562 205.046875 214.792969 195.488281 214.792969 183.699219 C 214.792969 171.90625 224.351562 162.351562 236.140625 162.351562 Z M 236.140625 162.351562 " fill-opacity="1" fill-rule="evenodd"/><path fill="#f46524" d="M 140.859375 149.867188 C 159.542969 149.867188 174.6875 165.011719 174.6875 183.695312 C 174.6875 202.375 159.542969 217.519531 140.859375 217.519531 C 122.175781 217.519531 107.03125 202.375 107.03125 183.695312 C 107.027344 165.015625 122.175781 149.867188 140.859375 149.867188 Z M 140.859375 162.351562 C 129.070312 162.351562 119.511719 171.90625 119.511719 183.699219 C 119.511719 195.488281 129.070312 205.046875 140.859375 205.046875 C 152.652344 205.046875 162.207031 195.488281 162.207031 183.699219 C 162.207031 171.90625 152.652344 162.351562 140.859375 162.351562 Z M 140.859375 162.351562 " fill-opacity="1" fill-rule="evenodd"/><path fill="#fb8c00" d="M 199.976562 128.164062 C 193.269531 121.714844 183.726562 121.714844 177.027344 128.164062 L 176.195312 133.371094 L 171.972656 159.9375 C 182.445312 147.808594 194.558594 147.808594 205.027344 159.9375 Z M 199.976562 128.164062 " fill-opacity="1" fill-rule="evenodd"/><path fill="#f46524" d="M 173.878906 113.878906 C 174.699219 95.410156 151.660156 94.335938 148.109375 107.304688 C 152.554688 105.414062 157.355469 104.898438 162.152344 105.996094 C 166.316406 106.945312 170.851562 110.246094 173.878906 113.878906 Z M 173.878906 113.878906 " fill-opacity="1" fill-rule="evenodd"/><path fill="#f46524" d="M 228.898438 107.304688 C 225.34375 94.335938 202.308594 95.410156 203.128906 113.878906 C 206.152344 110.246094 210.683594 106.945312 214.855469 105.996094 C 219.644531 104.898438 224.449219 105.414062 228.898438 107.304688 Z M 228.898438 107.304688 " fill-opacity="1" fill-rule="evenodd"/><path fill="#fb8c00" d="M 142.429688 114.472656 L 119.289062 153.957031 C 125.34375 149.558594 132.796875 146.960938 140.859375 146.960938 C 152.160156 146.960938 162.261719 152.0625 169.003906 160.089844 L 173.324219 132.917969 L 174.6875 124.335938 C 175.152344 122.367188 174.542969 120.195312 173.320312 118.109375 C 170.746094 113.730469 165.433594 109.734375 161.496094 108.835938 C 155.8125 107.539062 151.003906 108.988281 147.640625 110.742188 C 144.34375 112.460938 142.429688 114.472656 142.429688 114.472656 Z M 142.429688 114.472656 " fill-opacity="1" fill-rule="evenodd"/><path fill="#fb8c00" d="M 203.675781 118.105469 C 202.453125 120.191406 201.851562 122.367188 202.308594 124.328125 L 203.671875 132.910156 L 207.992188 160.085938 C 214.730469 152.058594 224.835938 146.957031 236.136719 146.957031 C 244.210938 146.957031 251.671875 149.566406 257.734375 153.976562 L 234.566406 114.464844 C 234.566406 114.464844 232.652344 112.453125 229.351562 110.734375 C 225.980469 108.980469 221.175781 107.527344 215.496094 108.828125 C 211.5625 109.730469 206.25 113.726562 203.675781 118.105469 Z M 203.675781 118.105469 " fill-opacity="1" fill-rule="evenodd"/><path fill="#fb8c00" d="M 175.839844 194.953125 C 183.964844 188.21875 192.910156 188.113281 201.164062 194.960938 C 200.023438 191.414062 199.40625 187.628906 199.40625 183.703125 C 199.40625 176.628906 201.40625 170.023438 204.875 164.414062 C 204.621094 164.070312 204.378906 163.742188 204.148438 163.441406 C 194.078125 150.53125 182.941406 150.53125 172.863281 163.441406 C 172.632812 163.742188 172.390625 164.070312 172.136719 164.417969 C 175.601562 170.027344 177.601562 176.628906 177.601562 183.703125 C 177.597656 187.621094 176.980469 191.402344 175.839844 194.953125 Z M 188.523438 179.945312 C 184.460938 179.914062 181.175781 176.605469 181.175781 172.542969 C 181.175781 168.46875 184.460938 165.167969 188.523438 165.136719 C 192.582031 165.167969 195.867188 168.476562 195.867188 172.542969 C 195.867188 176.613281 192.585938 179.914062 188.523438 179.945312 Z M 188.523438 179.945312 " fill-opacity="1" fill-rule="evenodd"/><g fill="#f46524" fill-opacity="1"><g transform="translate(93.691224, 261.405978)"><g><path d="M 9.578125 0.375 C 7.972656 0.375 6.554688 0.0976562 5.328125 -0.453125 C 4.109375 -1.003906 3.144531 -1.789062 2.4375 -2.8125 C 1.726562 -3.84375 1.363281 -5.097656 1.34375 -6.578125 L 5.546875 -6.578125 C 5.585938 -5.554688 5.957031 -4.695312 6.65625 -4 C 7.351562 -3.3125 8.316406 -2.96875 9.546875 -2.96875 C 10.609375 -2.96875 11.445312 -3.21875 12.0625 -3.71875 C 12.6875 -4.226562 13 -4.910156 13 -5.765625 C 13 -6.660156 12.722656 -7.359375 12.171875 -7.859375 C 11.628906 -8.359375 10.898438 -8.765625 9.984375 -9.078125 C 9.066406 -9.390625 8.085938 -9.722656 7.046875 -10.078125 C 5.359375 -10.660156 4.070312 -11.40625 3.1875 -12.3125 C 2.3125 -13.226562 1.875 -14.445312 1.875 -15.96875 C 1.851562 -17.257812 2.160156 -18.363281 2.796875 -19.28125 C 3.429688 -20.207031 4.296875 -20.925781 5.390625 -21.4375 C 6.492188 -21.945312 7.765625 -22.203125 9.203125 -22.203125 C 10.660156 -22.203125 11.941406 -21.941406 13.046875 -21.421875 C 14.160156 -20.898438 15.035156 -20.171875 15.671875 -19.234375 C 16.304688 -18.304688 16.644531 -17.195312 16.6875 -15.90625 L 12.40625 -15.90625 C 12.382812 -16.675781 12.085938 -17.359375 11.515625 -17.953125 C 10.953125 -18.546875 10.160156 -18.84375 9.140625 -18.84375 C 8.265625 -18.863281 7.53125 -18.648438 6.9375 -18.203125 C 6.34375 -17.753906 6.046875 -17.101562 6.046875 -16.25 C 6.046875 -15.519531 6.273438 -14.941406 6.734375 -14.515625 C 7.191406 -14.085938 7.816406 -13.726562 8.609375 -13.4375 C 9.398438 -13.144531 10.304688 -12.832031 11.328125 -12.5 C 12.398438 -12.125 13.382812 -11.6875 14.28125 -11.1875 C 15.175781 -10.695312 15.894531 -10.039062 16.4375 -9.21875 C 16.976562 -8.394531 17.25 -7.335938 17.25 -6.046875 C 17.25 -4.898438 16.957031 -3.835938 16.375 -2.859375 C 15.789062 -1.890625 14.925781 -1.109375 13.78125 -0.515625 C 12.632812 0.078125 11.234375 0.375 9.578125 0.375 Z M 9.578125 0.375 "/></g></g></g><g fill="#f46524" fill-opacity="1"><g transform="translate(112.311418, 261.405978)"><g><path d="M 8.921875 0 C 7.296875 0 5.992188 -0.394531 5.015625 -1.1875 C 4.046875 -1.976562 3.5625 -3.378906 3.5625 -5.390625 L 3.5625 -12.125 L 0.90625 -12.125 L 0.90625 -15.46875 L 3.5625 -15.46875 L 4.015625 -19.609375 L 7.546875 -19.609375 L 7.546875 -15.46875 L 11.71875 -15.46875 L 11.71875 -12.125 L 7.546875 -12.125 L 7.546875 -5.359375 C 7.546875 -4.609375 7.707031 -4.09375 8.03125 -3.8125 C 8.351562 -3.539062 8.910156 -3.40625 9.703125 -3.40625 L 11.640625 -3.40625 L 11.640625 0 Z M 8.921875 0 "/></g></g></g><g fill="#f46524" fill-opacity="1"><g transform="translate(125.442247, 261.405978)"><g><path d="M 7.828125 0.375 C 5.890625 0.375 4.394531 -0.226562 3.34375 -1.4375 C 2.300781 -2.644531 1.78125 -4.410156 1.78125 -6.734375 L 1.78125 -15.46875 L 5.734375 -15.46875 L 5.734375 -7.109375 C 5.734375 -5.773438 6.003906 -4.753906 6.546875 -4.046875 C 7.085938 -3.347656 7.941406 -3 9.109375 -3 C 10.210938 -3 11.117188 -3.390625 11.828125 -4.171875 C 12.546875 -4.960938 12.90625 -6.066406 12.90625 -7.484375 L 12.90625 -15.46875 L 16.90625 -15.46875 L 16.90625 0 L 13.375 0 L 13.0625 -2.625 C 12.582031 -1.707031 11.890625 -0.976562 10.984375 -0.4375 C 10.085938 0.101562 9.035156 0.375 7.828125 0.375 Z M 7.828125 0.375 "/></g></g></g><g fill="#f46524" fill-opacity="1"><g transform="translate(144.405528, 261.405978)"><g><path d="M 9.140625 0.375 C 7.679688 0.375 6.378906 0.0195312 5.234375 -0.6875 C 4.097656 -1.394531 3.195312 -2.359375 2.53125 -3.578125 C 1.863281 -4.804688 1.53125 -6.203125 1.53125 -7.765625 C 1.53125 -9.328125 1.863281 -10.710938 2.53125 -11.921875 C 3.195312 -13.140625 4.097656 -14.097656 5.234375 -14.796875 C 6.378906 -15.492188 7.679688 -15.84375 9.140625 -15.84375 C 10.304688 -15.84375 11.320312 -15.625 12.1875 -15.1875 C 13.0625 -14.75 13.769531 -14.132812 14.3125 -13.34375 L 14.3125 -22.453125 L 18.3125 -22.453125 L 18.3125 0 L 14.75 0 L 14.3125 -2.21875 C 13.8125 -1.53125 13.148438 -0.925781 12.328125 -0.40625 C 11.515625 0.113281 10.453125 0.375 9.140625 0.375 Z M 9.984375 -3.125 C 11.265625 -3.125 12.316406 -3.550781 13.140625 -4.40625 C 13.960938 -5.269531 14.375 -6.378906 14.375 -7.734375 C 14.375 -9.085938 13.960938 -10.191406 13.140625 -11.046875 C 12.316406 -11.910156 11.265625 -12.34375 9.984375 -12.34375 C 8.710938 -12.34375 7.660156 -11.914062 6.828125 -11.0625 C 5.992188 -10.21875 5.578125 -9.117188 5.578125 -7.765625 C 5.578125 -6.410156 5.992188 -5.296875 6.828125 -4.421875 C 7.660156 -3.554688 8.710938 -3.125 9.984375 -3.125 Z M 9.984375 -3.125 "/></g></g></g><g fill="#f46524" fill-opacity="1"><g transform="translate(164.741148, 261.405978)"><g><path d="M 3.953125 6.859375 L 7.546875 -1.03125 L 6.609375 -1.03125 L 0.59375 -15.46875 L 4.921875 -15.46875 L 9.265625 -4.578125 L 13.78125 -15.46875 L 18.03125 -15.46875 L 8.203125 6.859375 Z M 3.953125 6.859375 "/></g></g></g><g fill="#f46524" fill-opacity="1"><g transform="translate(183.361342, 261.405978)"><g><path d="M 2.125 0 L 2.125 -21.828125 L 10.890625 -21.828125 C 13.148438 -21.828125 14.878906 -21.300781 16.078125 -20.25 C 17.273438 -19.207031 17.875 -17.863281 17.875 -16.21875 C 17.875 -14.84375 17.503906 -13.742188 16.765625 -12.921875 C 16.023438 -12.109375 15.125 -11.554688 14.0625 -11.265625 C 15.3125 -11.015625 16.34375 -10.394531 17.15625 -9.40625 C 17.96875 -8.414062 18.375 -7.265625 18.375 -5.953125 C 18.375 -4.234375 17.75 -2.8125 16.5 -1.6875 C 15.25 -0.5625 13.484375 0 11.203125 0 Z M 6.109375 -12.65625 L 10.296875 -12.65625 C 11.410156 -12.65625 12.269531 -12.914062 12.875 -13.4375 C 13.476562 -13.957031 13.78125 -14.695312 13.78125 -15.65625 C 13.78125 -16.570312 13.484375 -17.296875 12.890625 -17.828125 C 12.296875 -18.359375 11.410156 -18.625 10.234375 -18.625 L 6.109375 -18.625 Z M 6.109375 -3.25 L 10.578125 -3.25 C 11.753906 -3.25 12.671875 -3.519531 13.328125 -4.0625 C 13.984375 -4.613281 14.3125 -5.390625 14.3125 -6.390625 C 14.3125 -7.410156 13.96875 -8.210938 13.28125 -8.796875 C 12.59375 -9.378906 11.671875 -9.671875 10.515625 -9.671875 L 6.109375 -9.671875 Z M 6.109375 -3.25 "/></g></g></g><g fill="#f46524" fill-opacity="1"><g transform="translate(203.041982, 261.405978)"><g><path d="M 7.828125 0.375 C 5.890625 0.375 4.394531 -0.226562 3.34375 -1.4375 C 2.300781 -2.644531 1.78125 -4.410156 1.78125 -6.734375 L 1.78125 -15.46875 L 5.734375 -15.46875 L 5.734375 -7.109375 C 5.734375 -5.773438 6.003906 -4.753906 6.546875 -4.046875 C 7.085938 -3.347656 7.941406 -3 9.109375 -3 C 10.210938 -3 11.117188 -3.390625 11.828125 -4.171875 C 12.546875 -4.960938 12.90625 -6.066406 12.90625 -7.484375 L 12.90625 -15.46875 L 16.90625 -15.46875 L 16.90625 0 L 13.375 0 L 13.0625 -2.625 C 12.582031 -1.707031 11.890625 -0.976562 10.984375 -0.4375 C 10.085938 0.101562 9.035156 0.375 7.828125 0.375 Z M 7.828125 0.375 "/></g></g></g><g fill="#f46524" fill-opacity="1"><g transform="translate(222.005264, 261.405978)"><g><path d="M 9.140625 0.375 C 7.679688 0.375 6.378906 0.0195312 5.234375 -0.6875 C 4.097656 -1.394531 3.195312 -2.359375 2.53125 -3.578125 C 1.863281 -4.804688 1.53125 -6.203125 1.53125 -7.765625 C 1.53125 -9.328125 1.863281 -10.710938 2.53125 -11.921875 C 3.195312 -13.140625 4.097656 -14.097656 5.234375 -14.796875 C 6.378906 -15.492188 7.679688 -15.84375 9.140625 -15.84375 C 10.304688 -15.84375 11.320312 -15.625 12.1875 -15.1875 C 13.0625 -14.75 13.769531 -14.132812 14.3125 -13.34375 L 14.3125 -22.453125 L 18.3125 -22.453125 L 18.3125 0 L 14.75 0 L 14.3125 -2.21875 C 13.8125 -1.53125 13.148438 -0.925781 12.328125 -0.40625 C 11.515625 0.113281 10.453125 0.375 9.140625 0.375 Z M 9.984375 -3.125 C 11.265625 -3.125 12.316406 -3.550781 13.140625 -4.40625 C 13.960938 -5.269531 14.375 -6.378906 14.375 -7.734375 C 14.375 -9.085938 13.960938 -10.191406 13.140625 -11.046875 C 12.316406 -11.910156 11.265625 -12.34375 9.984375 -12.34375 C 8.710938 -12.34375 7.660156 -11.914062 6.828125 -11.0625 C 5.992188 -10.21875 5.578125 -9.117188 5.578125 -7.765625 C 5.578125 -6.410156 5.992188 -5.296875 6.828125 -4.421875 C 7.660156 -3.554688 8.710938 -3.125 9.984375 -3.125 Z M 9.984375 -3.125 "/></g></g></g><g fill="#f46524" fill-opacity="1"><g transform="translate(242.340884, 261.405978)"><g><path d="M 9.140625 0.375 C 7.679688 0.375 6.378906 0.0195312 5.234375 -0.6875 C 4.097656 -1.394531 3.195312 -2.359375 2.53125 -3.578125 C 1.863281 -4.804688 1.53125 -6.203125 1.53125 -7.765625 C 1.53125 -9.328125 1.863281 -10.710938 2.53125 -11.921875 C 3.195312 -13.140625 4.097656 -14.097656 5.234375 -14.796875 C 6.378906 -15.492188 7.679688 -15.84375 9.140625 -15.84375 C 10.304688 -15.84375 11.320312 -15.625 12.1875 -15.1875 C 13.0625 -14.75 13.769531 -14.132812 14.3125 -13.34375 L 14.3125 -22.453125 L 18.3125 -22.453125 L 18.3125 0 L 14.75 0 L 14.3125 -2.21875 C 13.8125 -1.53125 13.148438 -0.925781 12.328125 -0.40625 C 11.515625 0.113281 10.453125 0.375 9.140625 0.375 Z M 9.984375 -3.125 C 11.265625 -3.125 12.316406 -3.550781 13.140625 -4.40625 C 13.960938 -5.269531 14.375 -6.378906 14.375 -7.734375 C 14.375 -9.085938 13.960938 -10.191406 13.140625 -11.046875 C 12.316406 -11.910156 11.265625 -12.34375 9.984375 -12.34375 C 8.710938 -12.34375 7.660156 -11.914062 6.828125 -11.0625 C 5.992188 -10.21875 5.578125 -9.117188 5.578125 -7.765625 C 5.578125 -6.410156 5.992188 -5.296875 6.828125 -4.421875 C 7.660156 -3.554688 8.710938 -3.125 9.984375 -3.125 Z M 9.984375 -3.125 "/></g></g></g><g fill="#f46524" fill-opacity="1"><g transform="translate(262.676504, 261.405978)"><g><path d="M 3.953125 6.859375 L 7.546875 -1.03125 L 6.609375 -1.03125 L 0.59375 -15.46875 L 4.921875 -15.46875 L 9.265625 -4.578125 L 13.78125 -15.46875 L 18.03125 -15.46875 L 8.203125 6.859375 Z M 3.953125 6.859375 "/></g></g></g></svg>